<?xml version="1.0" standalone="no"?>
<!DOCTYPE svg PUBLIC "-//W3C//DTD SVG 20010904//EN"
 "http://www.w3.org/TR/2001/REC-SVG-20010904/DTD/svg10.dtd">
<svg version="1.0" xmlns="http://www.w3.org/2000/svg"
 width="260.000000pt" height="260.000000pt" viewBox="0 0 260.000000 260.000000"
 preserveAspectRatio="xMidYMid meet">
<metadata>
Created by potrace 1.11, written by Peter Selinger 2001-2013
</metadata>
<g transform="translate(0.000000,260.000000) scale(0.100000,-0.100000)"
fill="#000000" stroke="none">
<path d="M1005 2550 c-10 -11 -15 -23 -12 -26 3 -4 -7 -17 -24 -31 -16 -14
-29 -31 -29 -38 0 -7 -13 -25 -30 -38 -16 -14 -30 -33 -30 -41 0 -9 -5 -16
-11 -16 -6 0 -9 -9 -6 -20 3 -11 1 -20 -3 -20 -5 0 -21 -12 -35 -26 -23 -23
-26 -34 -24 -79 2 -33 -3 -60 -10 -69 -8 -9 -11 -26 -7 -41 5 -20 3 -25 -14
-25 -17 0 -20 -7 -20 -48 0 -36 -5 -50 -20 -60 -11 -7 -20 -20 -20 -30 0 -27
-23 -72 -37 -72 -7 0 -18 -12 -25 -27 -7 -16 -19 -28 -26 -28 -7 0 -16 -5 -20
-10 -4 -6 -27 -10 -52 -10 -42 0 -45 -2 -48 -27 -3 -27 -1 -28 38 -28 34 0 41
-3 38 -17 -2 -10 -11 -18 -21 -17 -9 0 -33 1 -53 2 -30 2 -35 5 -32 25 2 18
-2 23 -29 25 -19 2 -33 -1 -33 -7 0 -6 -9 -11 -20 -11 -13 0 -20 -7 -20 -20 0
-11 -6 -20 -13 -20 -8 0 -22 -9 -32 -20 -10 -11 -15 -20 -10 -20 4 0 2 -7 -6
-16 -7 -9 -12 -34 -10 -58 2 -32 -3 -46 -18 -60 -18 -16 -21 -31 -21 -93 l0
-73 -40 0 c-22 0 -40 -4 -40 -9 0 -5 -9 -11 -21 -14 -12 -3 -18 -10 -15 -15 3
-5 -3 -17 -14 -27 -15 -13 -20 -31 -20 -65 0 -31 -6 -52 -15 -60 -9 -7 -25
-33 -36 -56 -10 -24 -27 -47 -36 -53 -14 -8 -15 -12 -4 -25 10 -12 10 -16 2
-16 -8 0 -11 -12 -9 -32 2 -24 8 -33 21 -32 10 1 17 -5 17 -15 -1 -19 -29 -71
-30 -53 0 6 -4 12 -10 12 -6 0 -10 -38 -10 -95 0 -92 1 -95 23 -92 17 2 23 -4
25 -26 3 -23 0 -28 -15 -25 -15 2 -19 -5 -21 -41 -2 -24 1 -48 7 -54 7 -7 7
-16 0 -29 -21 -40 48 -80 70 -40 7 13 4 23 -11 40 -12 12 -16 22 -10 22 6 0
14 -4 17 -10 11 -17 54 -11 65 9 8 17 15 18 42 10 18 -5 41 -6 52 -3 10 4 22
0 27 -7 7 -11 -6 -15 -64 -19 -60 -4 -72 -8 -75 -24 -6 -28 15 -36 103 -36 96
0 116 10 93 46 -8 12 62 44 96 44 32 0 10 -25 -25 -28 -39 -4 -52 -18 -38 -44
9 -16 24 -18 133 -18 110 0 125 2 141 20 15 17 16 24 7 45 -11 24 -10 25 18
25 25 0 29 -4 27 -22 -4 -38 35 -34 75 6 32 32 63 96 39 82 -15 -10 -21 21 -8
48 15 33 27 33 27 1 0 -32 18 -32 52 0 16 15 39 25 57 25 16 0 33 5 36 10 8
13 145 13 145 0 0 -5 16 -10 35 -10 28 0 35 -4 35 -20 0 -16 7 -20 35 -20 29
0 35 4 35 21 0 11 -7 27 -15 35 -21 21 -19 34 5 34 11 0 23 7 26 15 4 8 11 15
16 15 5 0 0 -15 -12 -34 -28 -46 -8 -58 33 -19 55 51 100 62 105 24 6 -42 53
-70 65 -38 6 17 72 10 88 -9 15 -18 -3 -19 -31 -2 -23 15 -38 4 -42 -32 -3
-21 2 -26 25 -28 21 -3 27 -9 27 -28 0 -13 5 -24 10 -24 6 0 10 -42 10 -105 0
-100 1 -105 21 -105 15 0 19 -4 15 -16 -4 -9 3 -32 14 -51 11 -19 20 -47 20
-62 0 -32 24 -57 50 -53 9 1 23 -5 31 -14 11 -14 11 -18 -4 -29 -24 -18 -21
-35 7 -35 20 0 22 4 18 26 -4 20 -1 25 9 22 9 -3 13 -18 11 -44 -2 -35 0 -40
28 -52 17 -8 37 -12 44 -9 8 3 19 -5 26 -19 13 -24 40 -33 40 -14 0 6 7 10 15
10 8 0 15 -9 15 -20 0 -19 7 -20 93 -20 90 0 93 1 117 30 15 18 34 30 48 30
25 0 52 21 52 40 0 7 19 31 43 54 51 49 62 72 41 84 -12 7 -10 11 10 21 22 12
29 24 51 86 l7 20 8 -20 c12 -29 12 -35 -4 -35 -16 0 -29 -41 -17 -53 5 -5 18
-3 30 5 17 10 21 20 17 40 -4 19 1 33 18 50 24 24 42 64 38 85 -2 6 2 14 8 18
5 3 10 39 10 80 0 56 5 83 23 117 12 23 25 45 30 46 9 5 9 36 0 46 -4 3 -22
-8 -40 -26 -22 -21 -33 -27 -33 -17 0 24 54 71 73 63 9 -3 24 1 34 11 16 17
16 18 -2 31 -11 8 -25 12 -32 10 -7 -3 -13 2 -13 10 0 10 6 14 14 11 19 -7 46
24 46 52 0 23 -31 42 -38 23 -2 -7 -8 -12 -14 -12 -5 0 -7 9 -3 20 4 11 0 29
-9 42 -18 25 -21 58 -7 58 5 0 11 -12 13 -28 2 -21 8 -27 28 -27 32 0 38 30
11 54 -12 10 -21 30 -21 45 0 14 -4 26 -10 26 -6 0 -10 28 -10 65 0 68 -8 79
-40 50 -13 -12 -19 -12 -32 -2 -13 9 -15 21 -9 52 8 40 12 38 27 -12 2 -7 10
-13 19 -13 17 0 22 55 5 65 -5 3 -10 22 -10 41 0 19 -5 34 -11 34 -6 0 -9 9
-6 20 3 11 0 26 -7 33 -7 7 -11 17 -9 24 2 6 0 14 -6 17 -14 9 -41 -4 -41 -20
0 -8 -9 -14 -19 -14 -11 0 -31 -14 -46 -31 -14 -17 -29 -29 -32 -25 -3 3 2 15
13 27 10 12 19 34 19 50 0 27 -7 32 -42 28 -4 0 -10 9 -15 20 -4 12 -16 21
-27 21 -20 0 -51 39 -51 65 0 10 -10 15 -30 15 -16 0 -30 5 -30 12 0 6 -7 19
-15 29 -14 15 -14 18 0 32 23 24 19 54 -7 53 -19 -1 -24 5 -26 32 -2 22 -14
43 -35 62 -18 16 -28 32 -23 37 10 10 87 -77 83 -96 -1 -8 4 -16 11 -18 8 -3
12 7 12 34 0 29 -7 46 -25 63 -14 13 -25 29 -25 36 0 6 -7 17 -15 24 -9 7 -23
29 -32 49 -9 20 -22 39 -27 43 -7 5 -7 8 2 8 19 0 14 19 -12 44 -15 16 -28 21
-37 16 -7 -5 -18 -5 -24 -1 -5 5 -45 11 -89 14 -89 6 -130 27 -54 27 56 0 78
7 78 26 0 11 -19 14 -85 14 -69 0 -85 -3 -85 -15 0 -18 -73 -21 -114 -5 -19 7
-37 5 -70 -7 -42 -16 -46 -16 -63 -1 -13 12 -29 15 -59 11 -35 -4 -45 -1 -76
26 -20 17 -40 31 -46 31 -18 0 -24 20 -12 35 15 18 5 49 -14 42 -8 -3 -17 1
-20 8 -3 8 -12 12 -20 9 -18 -7 -10 -34 10 -34 8 0 14 -6 14 -14 0 -21 -17
-29 -24 -11 -3 8 -15 15 -26 15 -17 0 -20 4 -15 21 5 15 2 22 -12 25 -15 4
-18 12 -15 34 2 15 -1 31 -7 34 -6 4 -11 36 -11 72 0 36 -4 64 -10 64 -5 0
-10 8 -10 18 0 11 -9 27 -19 36 -18 17 -19 16 -26 -14 -4 -17 -12 -29 -18 -27
-7 3 -22 -5 -34 -16 -13 -11 -23 -15 -23 -9 0 7 11 21 24 33 15 13 22 28 19
40 -7 24 -15 24 -38 -1z m85 -139 c0 -26 5 -52 12 -59 7 -7 8 -12 2 -12 -16 0
-30 39 -33 89 -2 29 1 41 8 37 6 -4 11 -29 11 -55z m-102 28 c-7 -12 -18 -29
-23 -38 -6 -9 -22 -29 -38 -45 -15 -16 -28 -37 -28 -47 -3 -38 -4 -42 -16 -46
-9 -3 -11 4 -6 29 3 18 9 35 13 38 3 3 27 33 54 68 47 61 69 82 44 41z m150
-188 c3 -8 -1 -12 -9 -9 -7 2 -15 10 -17 17 -3 8 1 12 9 9 7 -2 15 -10 17 -17z
m-278 -82 c0 -37 -4 -58 -10 -54 -18 11 -12 115 7 115 2 0 3 -27 3 -61z m-38
-124 c-4 -35 -22 -60 -22 -31 0 16 17 66 23 66 2 0 1 -16 -1 -35z m-38 -87
c-4 -13 -7 -32 -8 -43 -1 -24 -89 -151 -94 -136 -3 10 55 93 71 99 4 2 7 17 7
33 0 16 6 38 12 49 17 26 21 25 12 -2z m1236 -33 c0 -14 -4 -25 -9 -25 -5 0
-11 11 -13 25 -4 17 -1 25 8 25 8 0 14 -11 14 -25z m-1015 -125 c-3 -10 -1
-30 6 -42 17 -32 18 -87 2 -81 -8 3 -13 22 -13 44 0 21 -4 39 -9 39 -12 0 -24
37 -16 50 12 19 37 11 30 -10z m-134 -44 c-34 -35 -37 -66 -6 -66 20 0 45 24
45 43 0 8 7 17 15 21 11 4 15 -1 15 -18 0 -12 3 -26 7 -29 9 -9 8 -71 -1 -85
-4 -7 -16 -12 -27 -12 -12 0 -19 -7 -19 -20 0 -11 -5 -20 -11 -20 -22 0 -39
30 -39 69 0 30 -4 41 -15 41 -8 0 -15 2 -15 4 0 2 -2 11 -5 18 -3 8 6 27 20
44 14 16 25 32 25 37 0 4 10 7 22 7 20 0 20 -2 -11 -34z m-213 7 c-10 -2 -28
-2 -40 0 -13 2 -5 4 17 4 22 1 32 -1 23 -4z m1414 -65 c-7 -7 -12 -8 -12 -2 0
6 3 14 7 17 3 4 9 5 12 2 2 -3 -1 -11 -7 -17z m-1662 -27 c-5 -11 -19 -23 -31
-26 -11 -4 -18 -12 -16 -18 2 -7 0 -21 -6 -32 -10 -19 -11 -19 -17 5 -5 18 1
34 18 58 27 36 71 47 52 13z m1719 -76 c13 -19 30 -35 37 -35 8 0 14 -4 14
-10 0 -19 -39 -10 -51 13 -6 12 -21 32 -32 45 -15 16 -17 22 -6 22 8 0 25 -16
38 -35z m-1319 -4 c14 -27 13 -41 -4 -41 -8 0 -16 13 -18 30 -5 34 6 40 22 11z
m197 -26 c-4 -8 -16 -15 -28 -15 -12 0 -27 -7 -34 -17 -7 -9 -17 -13 -24 -9
-17 11 5 36 30 36 11 0 19 4 19 9 0 9 31 20 39 15 2 -2 1 -10 -2 -19z m-434
-12 c-7 -2 -21 -2 -30 0 -10 3 -4 5 12 5 17 0 24 -2 18 -5z m327 -38 c0 -8 -9
-15 -19 -15 -11 0 -28 -3 -38 -7 -12 -4 -10 0 7 15 29 25 50 28 50 7z m1320
-7 c0 -18 -2 -20 -9 -8 -6 8 -7 18 -5 22 9 14 14 9 14 -14z m-1660 -48 c0 -14
-7 -20 -22 -20 -20 0 -21 1 -3 20 10 11 20 20 22 20 1 0 3 -9 3 -20z m1696
-18 c-9 -8 -26 10 -26 26 1 15 2 15 15 -2 8 -11 13 -21 11 -24z m-1930 -19
c-11 -11 -17 4 -9 23 7 18 8 18 11 1 2 -10 1 -21 -2 -24z m514 -13 c0 -5 -4
-10 -10 -10 -5 0 -10 5 -10 10 0 6 5 10 10 10 6 0 10 -4 10 -10z m-118 -32
c-9 -9 -15 -9 -24 0 -9 9 -7 12 12 12 19 0 21 -3 12 -12z m1728 -50 c0 -10 -4
-18 -10 -18 -5 0 -10 8 -10 18 0 9 -3 28 -6 42 l-5 25 15 -25 c8 -14 15 -33
16 -42z m-2207 -19 c21 0 21 -1 2 -8 -11 -4 -32 -11 -48 -15 -26 -6 -27 -5
-15 14 7 11 19 18 26 15 8 -3 23 -5 35 -6z m-73 -75 c0 -21 -4 -33 -10 -29
-17 10 -11 65 7 65 2 0 3 -16 3 -36z m-21 -103 c-12 -16 -30 -32 -40 -34 -13
-3 -19 -14 -19 -31 0 -14 -4 -26 -10 -26 -23 0 -7 38 32 77 50 48 68 55 37 14z
m2361 -77 c0 -8 -4 -14 -10 -14 -5 0 -10 9 -10 21 0 11 5 17 10 14 6 -3 10
-13 10 -21z m-2448 -66 c-7 -7 -12 -8 -12 -2 0 14 12 26 19 19 2 -3 -1 -11 -7
-17z m1284 -155 c-14 -15 -29 -24 -33 -19 -4 4 3 16 17 26 36 28 45 24 16 -7z
m74 17 c8 -5 12 -11 10 -14 -3 -2 -14 2 -24 10 -22 15 -10 19 14 4z m46 -67
c-10 -10 -19 5 -10 18 6 11 8 11 12 0 2 -7 1 -15 -2 -18z m-313 -7 c25 -19 21
-30 -5 -12 -29 20 -169 22 -201 3 -14 -9 -36 -11 -62 -7 l-40 6 50 8 c28 4 55
9 60 11 29 10 182 3 198 -9z m437 -124 c0 -7 -4 -10 -10 -7 -5 3 -10 16 -10
28 0 18 2 19 10 7 5 -8 10 -21 10 -28z m872 16 c-7 -7 -12 -8 -12 -2 0 14 12
26 19 19 2 -3 -1 -11 -7 -17z m-2392 -48 c0 -16 -4 -30 -10 -30 -5 0 -10 14
-10 30 0 17 5 30 10 30 6 0 10 -13 10 -30z m680 -10 c-22 -31 -39 -45 -45 -38
-4 4 53 68 61 68 3 0 -4 -13 -16 -30z m1701 -32 c1 -18 0 -37 -1 -43 -2 -5 -6
-27 -10 -48 -4 -21 -13 -44 -20 -50 -10 -10 -11 -7 -7 13 3 14 9 55 12 93 8
69 24 92 26 35z m-824 -110 c-2 -13 -4 -5 -4 17 -1 22 1 32 4 23 2 -10 2 -28
0 -40z m3 -50 c0 -19 -2 -20 -10 -8 -13 19 -13 30 0 30 6 0 10 -10 10 -22z
m772 -20 c-7 -7 -12 -8 -12 -2 0 14 12 26 19 19 2 -3 -1 -11 -7 -17z m-737
-53 c6 -29 6 -29 -9 -11 -9 11 -16 29 -16 40 0 28 17 8 25 -29z m31 -91 c-4
-12 -10 -14 -17 -7 -5 5 -7 17 -3 27 4 12 10 14 17 7 5 -5 7 -17 3 -27z m589
-14 c-3 -5 -11 -10 -16 -10 -6 0 -7 5 -4 10 3 6 11 10 16 10 6 0 7 -4 4 -10z
m-105 -95 c-24 -31 -45 -54 -47 -51 -2 2 15 29 39 60 23 30 44 53 47 51 2 -3
-15 -29 -39 -60z m-366 -16 c35 -20 47 -39 26 -39 -5 0 -10 4 -10 9 0 5 -15
18 -32 30 -43 27 -30 27 16 0z m130 -30 c-7 -12 -41 -12 -49 0 -9 15 28 31 42
19 7 -6 10 -14 7 -19z m114 -19 c23 0 42 -4 42 -10 0 -6 -26 -10 -59 -10 -45
0 -60 4 -65 16 -5 13 -2 15 16 10 13 -3 42 -6 66 -6z"/>
<path d="M1309 2245 c-6 -23 -2 -34 20 -57 28 -31 80 -38 101 -13 17 21 4 35
-33 35 -21 0 -38 7 -47 20 -13 18 -38 27 -41 15z"/>
<path d="M1454 2175 c-10 -24 6 -35 51 -35 33 0 47 5 54 19 14 26 5 31 -51 31
-33 0 -50 -5 -54 -15z"/>
<path d="M1607 2184 c-14 -15 15 -44 43 -44 31 0 39 17 18 38 -13 13 -50 16
-61 6z"/>
</g>
</svg>
